<?xml version="1.0" encoding="UTF-8"?>
<!DOCTYPE svg PUBLIC "-//W3C//DTD SVG 1.1//EN" "http://www.w3.org/Graphics/SVG/1.1/DTD/svg11.dtd">
<svg xmlns="http://www.w3.org/2000/svg" xmlns:xlink="http://www.w3.org/1999/xlink" version="1.1" width="170px" height="170px" viewBox="-0.5 -0.5 170 170"><defs/><g><g data-cell-id="tbqBHsqnuvm20Lmm4BrF-0"><g data-cell-id="tbqBHsqnuvm20Lmm4BrF-1"><g data-cell-id="35r0tRhbRCo3vRkPoBUl-40"><g/><g data-cell-id="35r0tRhbRCo3vRkPoBUl-37"><g><ellipse cx="85" cy="85" rx="74.99999999999999" ry="74.99999999999999" fill="#ffffff" stroke="#ffffff" stroke-width="6" pointer-events="all"/></g></g><g data-cell-id="35r0tRhbRCo3vRkPoBUl-36"><g><path d="M 18 19 L 92 19 L 117 44 L 117 151 L 18 151 L 18 19 Z" fill="#ffffff" stroke="#ffffff" stroke-width="6" stroke-miterlimit="10" pointer-events="all"/><path d="M 92 19 L 92 44 L 117 44 Z" fill-opacity="0.05" fill="#000000" stroke="none" pointer-events="all"/><path d="M 92 19 L 92 44 L 117 44" fill="none" stroke="#ffffff" stroke-width="6" stroke-miterlimit="10" pointer-events="all"/></g></g><g data-cell-id="35r0tRhbRCo3vRkPoBUl-38"><g><rect x="104.95" y="126.39" width="51.52" height="10.25" rx="5.13" ry="5.13" fill="#ffffff" stroke="#ffffff" stroke-width="6" transform="rotate(45,130.71,131.52)" pointer-events="all"/></g></g></g><g data-cell-id="35r0tRhbRCo3vRkPoBUl-0"><g><ellipse cx="85" cy="85" rx="74.99999999999999" ry="74.99999999999999" fill="#46cbc4" stroke="none" pointer-events="all"/></g></g><g data-cell-id="35r0tRhbRCo3vRkPoBUl-18"><g><ellipse cx="37" cy="128" rx="10.999999999999998" ry="10.999999999999998" fill="#f29d56" stroke="rgb(0, 0, 0)" stroke-width="3" pointer-events="all"/></g></g><g data-cell-id="35r0tRhbRCo3vRkPoBUl-19"><g><path d="M 32 135 C 32 129.4 32 126.6 37.25 126.6 C 33.75 126.6 33.75 121 37.25 121 C 40.75 121 40.75 126.6 37.25 126.6 C 42.5 126.6 42.5 129.4 42.5 135 Z" fill="#000000" stroke="none" pointer-events="all"/></g></g><g data-cell-id="35r0tRhbRCo3vRkPoBUl-20"><g><ellipse cx="133.56" cy="52" rx="4.999999999999999" ry="4.999999999999999" fill="#f29e56" stroke="rgb(0, 0, 0)" stroke-width="3" pointer-events="all"/></g></g><g data-cell-id="35r0tRhbRCo3vRkPoBUl-21"><g><path d="M 128.56 52 L 119 52" fill="none" stroke="rgb(0, 0, 0)" stroke-width="3" stroke-miterlimit="10" pointer-events="stroke"/></g></g><g data-cell-id="35r0tRhbRCo3vRkPoBUl-22"><g><ellipse cx="138.56" cy="114" rx="4.999999999999999" ry="4.999999999999999" fill="#f29e56" stroke="rgb(0, 0, 0)" stroke-width="3" pointer-events="all"/></g></g><g data-cell-id="35r0tRhbRCo3vRkPoBUl-23"><g><path d="M 133.56 114 L 119 114" fill="none" stroke="rgb(0, 0, 0)" stroke-width="3" stroke-miterlimit="10" pointer-events="stroke"/></g></g><g data-cell-id="35r0tRhbRCo3vRkPoBUl-24"><g><ellipse cx="145.84" cy="100" rx="4.999999999999999" ry="4.999999999999999" fill="#46cbc4" stroke="rgb(0, 0, 0)" stroke-width="3" pointer-events="all"/></g></g><g data-cell-id="35r0tRhbRCo3vRkPoBUl-25"><g><path d="M 140.84 100 L 126.28 100" fill="none" stroke="rgb(0, 0, 0)" stroke-width="3" stroke-miterlimit="10" pointer-events="stroke"/></g></g><g data-cell-id="35r0tRhbRCo3vRkPoBUl-26"><g><ellipse cx="142.81" cy="68.6" rx="4.999999999999999" ry="4.999999999999999" fill="#f29e56" stroke="rgb(0, 0, 0)" stroke-width="3" pointer-events="all"/></g></g><g data-cell-id="35r0tRhbRCo3vRkPoBUl-27"><g><ellipse cx="142.81" cy="84.6" rx="4.999999999999999" ry="4.999999999999999" fill="#0496c9" stroke="rgb(0, 0, 0)" stroke-width="3" pointer-events="all"/></g></g><g data-cell-id="35r0tRhbRCo3vRkPoBUl-28"><g><path d="M 134.31 76.6 L 125.31 76.6" fill="none" stroke="rgb(0, 0, 0)" stroke-width="3" stroke-miterlimit="10" pointer-events="stroke"/></g></g><g data-cell-id="35r0tRhbRCo3vRkPoBUl-29"><g><path d="M 139.27 81.06 L 134.31 76.6" fill="none" stroke="rgb(0, 0, 0)" stroke-width="3" stroke-miterlimit="10" pointer-events="stroke"/></g></g><g data-cell-id="35r0tRhbRCo3vRkPoBUl-30"><g><path d="M 139.27 72.14 L 134.31 76.6" fill="none" stroke="rgb(0, 0, 0)" stroke-width="3" stroke-miterlimit="10" pointer-events="stroke"/></g></g><g data-cell-id="35r0tRhbRCo3vRkPoBUl-2"><g><path d="M 19 20 L 93 20 L 118 45 L 118 150 L 19 150 L 19 20 Z" fill="#46cbc4" stroke="rgb(0, 0, 0)" stroke-width="4" stroke-miterlimit="10" pointer-events="all"/><path d="M 93 20 L 93 45 L 118 45 Z" fill-opacity="0.05" fill="#000000" stroke="none" pointer-events="all"/><path d="M 93 20 L 93 45 L 118 45" fill="none" stroke="rgb(0, 0, 0)" stroke-width="4" stroke-miterlimit="10" pointer-events="all"/></g></g><g data-cell-id="35r0tRhbRCo3vRkPoBUl-3"><g><rect x="104.95" y="126.39" width="51.52" height="10.25" rx="5.13" ry="5.13" fill="#000000" stroke="rgb(0, 0, 0)" transform="rotate(45,130.71,131.52)" pointer-events="all"/></g></g><g data-cell-id="35r0tRhbRCo3vRkPoBUl-4"><g><path d="M 71 31 L 26 31" fill="none" stroke="rgb(0, 0, 0)" stroke-width="10" stroke-miterlimit="10" pointer-events="stroke"/></g></g><g data-cell-id="35r0tRhbRCo3vRkPoBUl-5"><g><path d="M 94.85 118 L 51.85 118" fill="none" stroke="rgb(0, 0, 0)" stroke-width="5" stroke-miterlimit="10" pointer-events="stroke"/></g></g><g data-cell-id="35r0tRhbRCo3vRkPoBUl-6"><g><path d="M 110 127.39 L 51.85 127.39" fill="none" stroke="rgb(0, 0, 0)" stroke-width="5" stroke-miterlimit="10" pointer-events="stroke"/></g></g><g data-cell-id="35r0tRhbRCo3vRkPoBUl-7"><g><path d="M 94.85 136.64 L 51.85 136.64" fill="none" stroke="rgb(0, 0, 0)" stroke-width="5" stroke-miterlimit="10" pointer-events="stroke"/></g></g><g data-cell-id="35r0tRhbRCo3vRkPoBUl-8"><g><path d="M 80 44.66 L 51.93 44.66" fill="none" stroke="rgb(0, 0, 0)" stroke-width="5" stroke-miterlimit="10" pointer-events="stroke"/></g></g><g data-cell-id="35r0tRhbRCo3vRkPoBUl-9"><g><path d="M 110.08 54.05 L 51.93 54.05" fill="none" stroke="rgb(0, 0, 0)" stroke-width="5" stroke-miterlimit="10" pointer-events="stroke"/></g></g><g data-cell-id="35r0tRhbRCo3vRkPoBUl-10"><g><path d="M 94.93 63.3 L 51.93 63.3" fill="none" stroke="rgb(0, 0, 0)" stroke-width="5" stroke-miterlimit="10" pointer-events="stroke"/></g></g><g data-cell-id="35r0tRhbRCo3vRkPoBUl-11"><g><ellipse cx="37" cy="54" rx="10.999999999999998" ry="10.999999999999998" fill="#f29d56" stroke="rgb(0, 0, 0)" stroke-width="3" pointer-events="all"/></g></g><g data-cell-id="35r0tRhbRCo3vRkPoBUl-12"><g><path d="M 39 81 L 25 81" fill="none" stroke="rgb(0, 0, 0)" stroke-width="5" stroke-miterlimit="10" pointer-events="stroke"/></g></g><g data-cell-id="35r0tRhbRCo3vRkPoBUl-13"><g><path d="M 83.15 90.39 L 25 90.39" fill="none" stroke="rgb(0, 0, 0)" stroke-width="5" stroke-miterlimit="10" pointer-events="stroke"/></g></g><g data-cell-id="35r0tRhbRCo3vRkPoBUl-14"><g><path d="M 68 99.64 L 25 99.64" fill="none" stroke="rgb(0, 0, 0)" stroke-width="5" stroke-miterlimit="10" pointer-events="stroke"/></g></g><g data-cell-id="35r0tRhbRCo3vRkPoBUl-15"><g><path d="M 87 81 L 44 81" fill="none" stroke="rgb(0, 0, 0)" stroke-width="5" stroke-miterlimit="10" pointer-events="stroke"/></g></g><g data-cell-id="35r0tRhbRCo3vRkPoBUl-16"><g><ellipse cx="91.7" cy="88.21" rx="34.85400420424711" ry="34.85400420424711" fill="#f29d56" stroke="rgb(0, 0, 0)" stroke-width="7" pointer-events="all"/></g></g><g data-cell-id="35r0tRhbRCo3vRkPoBUl-17"><g><ellipse cx="37" cy="54" rx="4.999999999999999" ry="4.999999999999999" fill="#f29d56" stroke="rgb(0, 0, 0)" stroke-width="3" pointer-events="all"/></g></g></g></g></g></svg>